<?xml version="1.0" encoding="utf-8"?>
<!-- Generator: Adobe Illustrator 21.0.0, SVG Export Plug-In . SVG Version: 6.00 Build 0)  -->
<svg version="1.1" id="Слой_1" xmlns="http://www.w3.org/2000/svg" xmlns:xlink="http://www.w3.org/1999/xlink" x="0px" y="0px"
	 viewBox="0 0 444 245" style="enable-background:new 0 0 444 245;" xml:space="preserve">
<style type="text/css">
	.st0{filter:url(#filter-1);}
	.st1{fill:#FFFFFF;stroke:#DDEDFF;}
	.st2{fill:none;stroke:#D2DEED;stroke-width:8;}
	.st3{fill:none;stroke:#BECDE2;stroke-width:8;}
	.st4{fill:none;stroke:#F5FAFF;stroke-width:8;}
	.st5{fill:none;stroke:#E4EDF9;stroke-width:8;}
</style>
<filter  filterUnits="objectBoundingBox" height="109.0%" id="filter-1" width="126.5%" x="-13.2%" y="-4.2%">
	<feOffset  dx="0" dy="4" in="SourceAlpha" result="shadowOffsetOuter1"></feOffset>
	<feGaussianBlur  in="shadowOffsetOuter1" result="shadowBlurOuter1" stdDeviation="17"></feGaussianBlur>
	
		<feColorMatrix  in="shadowBlurOuter1" result="shadowMatrixOuter1" type="matrix" values="0 0 0 0 0.823529412   0 0 0 0 0.870588235   0 0 0 0 0.929411765  0 0 0 0.3 0">
		</feColorMatrix>
	<feMerge>
		<feMergeNode  in="shadowMatrixOuter1"></feMergeNode>
		<feMergeNode  in="SourceGraphic"></feMergeNode>
	</feMerge>
</filter>
<title>Group 8</title>
<desc>Created with Sketch.</desc>
<g id="System">
	<g id="Create-Block-_x2014_-Visual-_x2014_-Widgets" transform="translate(-6.000000, -745.000000)">
		<g id="Group-14" transform="translate(24.000000, 80.000000)" class="st0">
			<g id="_x33__1_" transform="translate(16.000000, 695.000000)">
				<g id="Group-8_1_">
					<path id="Rectangle-29-Copy_1_" class="st1" d="M-26-27h428.7c1.9,0,3.5,1.6,3.5,3.5v230c0,1.9-1.6,3.5-3.5,3.5H-26
						c-1.9,0-3.5-1.6-3.5-3.5v-230C-29.5-25.4-27.9-27-26-27z"/>
					<g id="Donut-chart_1_" transform="translate(114.000000, 29.000000)">
						<path id="c_donut_4_1_" class="st2" d="M25-6.5c14.7-10.7,32.4-16.4,50.5-16.4"/>
						<path id="c_donut_3_1_" class="st3" d="M-9,47C-4.9,25.5,7.3,6.4,25-6.5"/>
						<path id="c_donut_2_1_" class="st4" d="M12.8,121.9C-6,101.9-14.1,74-9,47"/>
						<path id="c_donut_1_1_" class="st5" d="M75.5-22.9c47.5,0,86,38.5,86,86s-38.5,86-86,86c-23.7,0-46.4-9.8-62.7-27.1"/>
					</g>
				</g>
			</g>
		</g>
	</g>
</g>
</svg>
