<?xml version="1.0" encoding="utf-8"?>
<!-- Generator: Adobe Illustrator 21.0.0, SVG Export Plug-In . SVG Version: 6.00 Build 0)  -->
<svg version="1.1" id="Слой_1" xmlns="http://www.w3.org/2000/svg" xmlns:xlink="http://www.w3.org/1999/xlink" x="0px" y="0px"
	 viewBox="0 0 444 245" style="enable-background:new 0 0 444 245;" xml:space="preserve">
<style type="text/css">
	.st0{filter:url(#filter-1);}
	.st1{fill:#FFFFFF;stroke:#DDEDFF;}
	.st2{fill:#EDF6FF;}
	.st3{fill:none;stroke:#E2E7EF;stroke-linecap:square;}
	.st4{opacity:0.2;fill:#E2E7EF;enable-background:new    ;}
	.st5{fill:none;stroke:#E4EDF9;stroke-width:1.5;stroke-linecap:round;}
	.st6{fill:#FFFFFF;stroke:#E4EDF9;stroke-width:1.5;}
	.st7{fill:#FFFFFF;stroke:#E4EDF9;}
</style>
<filter  filterUnits="objectBoundingBox" height="109.0%" id="filter-1" width="126.5%" x="-13.2%" y="-4.2%">
	<feOffset  dx="0" dy="4" in="SourceAlpha" result="shadowOffsetOuter1"></feOffset>
	<feGaussianBlur  in="shadowOffsetOuter1" result="shadowBlurOuter1" stdDeviation="17"></feGaussianBlur>
	
		<feColorMatrix  in="shadowBlurOuter1" result="shadowMatrixOuter1" type="matrix" values="0 0 0 0 0.823529412   0 0 0 0 0.870588235   0 0 0 0 0.929411765  0 0 0 0.3 0">
		</feColorMatrix>
	<feMerge>
		<feMergeNode  in="shadowMatrixOuter1"></feMergeNode>
		<feMergeNode  in="SourceGraphic"></feMergeNode>
	</feMerge>
</filter>
<title>Group 7</title>
<desc>Created with Sketch.</desc>
<g id="System">
	<g id="Create-Block-_x2014_-Visual-_x2014_-Widgets" transform="translate(-6.000000, -491.000000)">
		<g id="Group-14" transform="translate(24.000000, 80.000000)" class="st0">
			<g id="_x32__1_" transform="translate(16.000000, 441.000000)">
				<g id="Group-7_1_">
					<path id="Rectangle-29-Copy_1_" class="st1" d="M-27.5-27.1h429c1.9,0,3.5,1.6,3.5,3.5v230.2c0,1.9-1.6,3.5-3.5,3.5h-429
						c-1.9,0-3.5-1.6-3.5-3.5V-23.6C-31-25.5-29.4-27.1-27.5-27.1z"/>
					<g id="Group-5-Copy_1_" transform="translate(22.000000, 24.000000)">
						<polygon id="Path-5_1_" class="st2" points="12.9,32.8 14.3,32.8 50.3,87.5 87.8,76.8 124.7,125.7 127.3,124.9 161.8,97.5 
							199.7,87.5 236.5,119.1 273.8,106 310.9,131.9 348.6,142.1 348.6,158.1 -27.3,158.1 						"/>
						<path id="_x31_-copy_1_" class="st3" d="M-26.8,158.2H358"/>
						<rect id="Rectangle-25_1_" x="-24.5" y="-23.8" class="st4" width="1.2" height="182.5"/>
						<rect id="Rectangle-25-Copy_1_" x="12.7" y="-23.8" class="st4" width="1.2" height="182.5"/>
						<rect id="Rectangle-25-Copy-2_1_" x="49.9" y="-23.8" class="st4" width="1.2" height="182.5"/>
						<rect id="Rectangle-25-Copy-3_1_" x="87.1" y="-23.8" class="st4" width="1.2" height="182.5"/>
						<rect id="Rectangle-25-Copy-4_1_" x="124.3" y="-23.8" class="st4" width="1.2" height="182.5"/>
						<rect id="Rectangle-25-Copy-5_1_" x="161.5" y="-23.8" class="st4" width="1.2" height="182.5"/>
						<rect id="Rectangle-25-Copy-6_1_" x="198.7" y="-23.8" class="st4" width="1.2" height="182.5"/>
						<rect id="Rectangle-25-Copy-7_1_" x="235.9" y="-23.8" class="st4" width="1.2" height="182.5"/>
						<rect id="Rectangle-25-Copy-8_1_" x="273.1" y="-23.8" class="st4" width="1.2" height="182.5"/>
						<rect id="Rectangle-25-Copy-9_1_" x="310.3" y="-23.8" class="st4" width="1.2" height="182.5"/>
						<rect id="Rectangle-25-Copy-10_1_" x="347.5" y="-23.8" class="st4" width="1.2" height="182.5"/>
						<polyline id="Path-3_1_" class="st5" points="-25.9,156.4 13.2,31.6 50.1,87.4 87.3,76.5 125.2,126.6 160.1,98.8 198.8,87.4 
							236.2,118.9 273.3,105.8 310.3,131.5 348.5,141.7 						"/>
						<circle id="Oval-3-Copy-2_1_" class="st6" cx="13.3" cy="31.5" r="1.7"/>
						<circle id="Oval-3-Copy-3_1_" class="st6" cx="87.7" cy="76.8" r="1.7"/>
						<circle id="Oval-3-Copy-9_1_" class="st6" cx="50.5" cy="87.3" r="1.7"/>
						<circle id="Oval-3-Copy-4_1_" class="st6" cx="124.9" cy="125.7" r="1.7"/>
						<circle id="Oval-3-Copy-10_1_" class="st6" cx="162.1" cy="97.7" r="1.7"/>
						<circle id="Oval-3-Copy-5_1_" class="st6" cx="199.3" cy="87.3" r="1.7"/>
						<circle id="Oval-3-Copy-6_1_" class="st6" cx="273.7" cy="105.9" r="1.7"/>
						<circle id="Oval-3-Copy-11_1_" class="st6" cx="236.5" cy="118.7" r="1.7"/>
						<circle id="Oval-3-Copy-7_1_" class="st7" cx="348.1" cy="141.9" r="1.7"/>
						<circle id="Oval-3-Copy-8_1_" class="st7" cx="310.9" cy="131.5" r="1.7"/>
					</g>
				</g>
			</g>
		</g>
	</g>
</g>
</svg>
