<?xml version="1.0" encoding="utf-8"?>
<!-- Generator: Adobe Illustrator 21.0.0, SVG Export Plug-In . SVG Version: 6.00 Build 0)  -->
<svg version="1.1" id="Слой_1" xmlns="http://www.w3.org/2000/svg" xmlns:xlink="http://www.w3.org/1999/xlink" x="0px" y="0px"
	 viewBox="0 0 444 186.3" style="enable-background:new 0 0 444 186.3;" xml:space="preserve">
<style type="text/css">
	.st0{filter:url(#filter-1);}
	.st1{fill:#FFFFFF;stroke:#DDEDFF;}
	.st2{opacity:8.000000e-02;fill:#1A8CFF;}
	.st3{opacity:0.9;}
	.st4{opacity:3.000000e-02;fill:#1A8CFF;}
</style>
<filter  filterUnits="objectBoundingBox" height="110.9%" id="filter-1" width="126.5%" x="-13.2%" y="-5.0%">
	<feOffset  dx="0" dy="4" in="SourceAlpha" result="shadowOffsetOuter1"></feOffset>
	<feGaussianBlur  in="shadowOffsetOuter1" result="shadowBlurOuter1" stdDeviation="17"></feGaussianBlur>
	
		<feColorMatrix  in="shadowBlurOuter1" result="shadowMatrixOuter1" type="matrix" values="0 0 0 0 0.823529412   0 0 0 0 0.870588235   0 0 0 0 0.929411765  0 0 0 0.3 0">
		</feColorMatrix>
	<feMerge>
		<feMergeNode  in="shadowMatrixOuter1"></feMergeNode>
		<feMergeNode  in="SourceGraphic"></feMergeNode>
	</feMerge>
</filter>
<title>Group 5</title>
<desc>Created with Sketch.</desc>
<g id="System">
	<g id="Create-Block-_x2014_-Visual-_x2014_-Layout" transform="translate(-6.000000, -237.000000)">
		<g id="Group-14" transform="translate(-9, 50)" class="st0">
			<g id="_x31__1_" transform="translate(16.000000, 187.000000)">
				<g id="Group-5_1_">
					<path id="Rectangle-29-Copy_1_" class="st1" d="M4,0.5h435.4c2,0,3.5,1.7,3.5,3.7v177.1c0,2-1.6,3.7-3.5,3.7H4
						c-2,0-3.5-1.7-3.5-3.7V4.2C0.5,2.2,2.1,0.5,4,0.5z"/>
					<g id="Rectangle-2-Copy-6_1_">
						<path class="st2" d="M22.9,31.9h86.1c2.3,0,4.1,1.9,4.1,4.3l0,0c0,2.4-1.8,4.3-4.1,4.3H22.9c-2.3,0-4.1-1.9-4.1-4.3l0,0
							C18.8,33.8,20.6,31.9,22.9,31.9z"/>
					</g>
					<g id="Rectangle-2-Copy-5_1_">
						<path class="st2" d="M22.9,50.3h152.2c2.3,0,4.1,1.9,4.1,4.3l0,0c0,2.4-1.8,4.3-4.1,4.3H22.9c-2.3,0-4.1-1.9-4.1-4.3l0,0
							C18.8,52.2,20.6,50.3,22.9,50.3z"/>
					</g>
					<g id="Group-Copy-5_1_" transform="translate(16.000000, 64.000000)" class="st3">
						<g id="Rectangle-2-Copy-3_1_">
							<path class="st2" d="M6.3,14.6h398.8c2,0,3.5,1.7,3.5,3.7v70.1c0,2-1.6,3.7-3.5,3.7H6.3c-2,0-3.5-1.7-3.5-3.7V18.3
								C2.8,16.3,4.4,14.6,6.3,14.6z"/>
						</g>
						<g id="Rectangle-2-Copy_1_">
							<path class="st4" d="M6.3,14.6h398.8c2,0,3.5,1.7,3.5,3.7v4.9H2.8v-4.9C2.8,16.3,4.4,14.6,6.3,14.6z"/>
						</g>
					</g>
				</g>
			</g>
		</g>
	</g>
</g>
</svg>
