<?xml version="1.0" encoding="utf-8"?>
<!-- Generator: Adobe Illustrator 21.0.0, SVG Export Plug-In . SVG Version: 6.00 Build 0)  -->
<svg version="1.1" id="Слой_1" xmlns="http://www.w3.org/2000/svg" xmlns:xlink="http://www.w3.org/1999/xlink" x="0px" y="0px"
	 viewBox="0 0 444 181" style="enable-background:new 0 0 444 181;" xml:space="preserve">
<style type="text/css">
	.st0{fill:#FFFFFF;stroke:#DDEDFF;}
	.st1{opacity:8.000000e-02;fill:#1A8CFF;enable-background:new    ;}
	.st2{opacity:3.000000e-02;fill:#1A8CFF;enable-background:new    ;}
</style>
<title>Group 6</title>
<desc>Created with Sketch.</desc>
<g id="System">
	<g id="Create-Block-_x2014_-Visual-_x2014_-Layout" transform="translate(-6.000000, -639.000000)">
		<g id="Group-14" transform="translate(-9, 50)">
			<g id="_x33__1_" transform="translate(16.000000, 589.000000)">
				<g id="Group-6_1_">
					<path id="Rectangle-29-Copy_1_" class="st0" d="M4,0.5h435.4c2,0,3.5,1.6,3.5,3.5v172.3c0,2-1.6,3.5-3.5,3.5H4
						c-2,0-3.5-1.6-3.5-3.5V4C0.5,2.1,2.1,0.5,4,0.5z"/>
					<g id="Rectangle-2-Copy-6_1_">
						<path class="st1" d="M22.9,30.6H109c2.3,0,4.1,1.8,4.1,4.1l0,0c0,2.3-1.8,4.1-4.1,4.1H22.9c-2.3,0-4.1-1.8-4.1-4.1l0,0
							C18.8,32.4,20.6,30.6,22.9,30.6z"/>
					</g>
					<g id="Rectangle-2-Copy-5_1_">
						<path class="st1" d="M22.9,48.3h152.2c2.3,0,4.1,1.8,4.1,4.1l0,0c0,2.3-1.8,4.1-4.1,4.1H22.9c-2.3,0-4.1-1.8-4.1-4.1l0,0
							C18.8,50.1,20.6,48.3,22.9,48.3z"/>
					</g>
					<g id="Group-Copy-5_1_" transform="translate(134.000000, 66.000000)">
						<g id="Rectangle-2-Copy-3_5_">
							<path class="st1" d="M27.6,11.8h259.6c2,0,3.5,1.6,3.5,3.5v67.3c0,2-1.6,3.5-3.5,3.5H27.6c-2,0-3.5-1.6-3.5-3.5V15.3
								C24,13.4,25.6,11.8,27.6,11.8z"/>
						</g>
						<g id="Rectangle-2-Copy_5_">
							<path class="st2" d="M27.6,11.8h259.6c2,0,3.5,1.6,3.5,3.5V20H24v-4.7C24,13.4,25.6,11.8,27.6,11.8z"/>
						</g>
					</g>
					<g id="Group-Copy-3_1_" transform="translate(16.000000, 66.000000)">
						<g id="Rectangle-2-Copy-3_2_">
							<path class="st1" d="M6.3,11.8h120.4c2,0,3.5,1.6,3.5,3.5v67.3c0,2-1.6,3.5-3.5,3.5H6.3c-2,0-3.5-1.6-3.5-3.5V15.3
								C2.8,13.4,4.4,11.8,6.3,11.8z"/>
						</g>
						<g id="Rectangle-2-Copy_2_">
							<path class="st2" d="M6.3,11.8h120.4c2,0,3.5,1.6,3.5,3.5V20H2.8v-4.7C2.8,13.4,4.4,11.8,6.3,11.8z"/>
						</g>
					</g>
				</g>
			</g>
		</g>
	</g>
</g>
</svg>
